<?xml version="1.0" standalone="no"?>
<!DOCTYPE svg PUBLIC "-//W3C//DTD SVG 20010904//EN"
 "http://www.w3.org/TR/2001/REC-SVG-20010904/DTD/svg10.dtd">
<svg version="1.0" xmlns="http://www.w3.org/2000/svg"
 width="400.000000pt" height="400.000000pt" viewBox="0 0 400.000000 400.000000"
 preserveAspectRatio="xMidYMid meet">
<metadata>
Created by potrace 1.11, written by Peter Selinger 2001-2013
</metadata>
<g transform="translate(0.000000,400.000000) scale(0.100000,-0.100000)"
fill="#000000" stroke="none">
<path d="M3134 2531 c-124 -56 -231 -228 -248 -396 -4 -37 -3 -43 3 -23 5 15
12 45 14 65 9 62 17 76 34 61 13 -11 13 -13 -1 -18 -12 -4 -9 -8 10 -17 22
-10 24 -10 14 3 -10 11 -9 14 6 14 15 1 13 4 -8 16 -16 8 -28 18 -28 23 0 13
30 81 47 107 l15 23 24 -27 c18 -20 22 -22 17 -8 -4 12 -2 17 3 13 6 -3 15 3
22 13 10 16 8 20 -9 25 -11 4 -23 4 -26 1 -4 -3 1 -6 10 -6 22 0 22 -16 0 -24
-14 -6 -32 8 -33 24 0 20 105 104 156 125 32 14 50 25 39 25 -11 0 -39 -9 -61
-19z"/>
<path d="M3317 2532 c118 -43 200 -141 253 -306 26 -79 37 -84 14 -5 -22 74
-68 165 -109 215 -44 53 -119 101 -170 108 -38 6 -38 5 12 -12z"/>
<path d="M1878 2522 c-19 -4 -34 -40 -21 -52 14 -13 53 -22 53 -12 0 5 -10 12
-22 16 -22 5 -22 6 -4 19 22 16 18 34 -6 29z"/>
<path d="M1990 2521 c0 -5 7 -16 15 -25 13 -13 13 -15 -5 -21 -24 -8 -18 -24
7 -21 30 5 39 32 19 55 -20 22 -36 27 -36 12z"/>
<path d="M3200 2500 c0 -11 4 -20 9 -20 5 0 7 9 4 20 -3 11 -7 20 -9 20 -2 0
-4 -9 -4 -20z"/>
<path d="M3230 2506 c0 -8 4 -17 8 -20 4 -2 8 4 8 15 0 10 -4 19 -8 19 -4 0
-8 -6 -8 -14z"/>
<path d="M3260 2516 c0 -11 30 -39 36 -34 2 3 -5 13 -16 23 -11 10 -20 15 -20
11z"/>
<path d="M1808 2496 c-10 -10 -18 -28 -18 -42 0 -21 5 -24 34 -24 19 0 38 5
41 10 4 6 3 10 -2 9 -4 -1 -19 -1 -32 0 -19 1 -21 4 -11 16 6 8 10 22 8 31 -3
17 -4 17 -20 0z"/>
<path d="M1936 2503 c-11 -11 -6 -23 9 -23 8 0 15 4 15 9 0 13 -16 22 -24 14z"/>
<path d="M2060 2492 c0 -10 5 -23 11 -29 7 -7 1 -13 -23 -18 l-33 -9 35 -4
c40 -4 65 19 50 48 -14 26 -40 33 -40 12z"/>
<path d="M3150 2496 c0 -8 4 -17 9 -20 5 -4 7 3 4 14 -6 23 -13 26 -13 6z"/>
<path d="M3316 2495 c-9 -26 -7 -32 5 -12 6 10 9 21 6 23 -2 3 -7 -2 -11 -11z"/>
<path d="M1744 2472 c-46 -37 -34 -82 21 -82 18 0 37 5 40 10 6 10 -21 15 -60
11 -18 -1 -18 0 3 19 12 11 22 30 22 40 0 24 0 24 -26 2z"/>
<path d="M3111 2478 c-1 -9 4 -20 9 -23 6 -3 10 -1 10 5 0 6 4 8 10 5 6 -3 7
1 3 10 -4 12 -8 13 -13 5 -6 -9 -9 -9 -13 1 -4 10 -6 9 -6 -3z"/>
<path d="M3342 2474 c-10 -11 -10 -14 2 -14 8 0 16 -5 18 -10 2 -6 9 -1 16 10
7 12 8 20 2 20 -5 0 -10 -6 -11 -12 0 -7 -3 -6 -7 3 -6 14 -9 15 -20 3z"/>
<path d="M2124 2465 c1 -8 11 -24 22 -36 18 -21 18 -22 1 -16 -23 9 -69 -2
-61 -14 3 -5 21 -9 40 -9 27 0 37 5 46 25 9 21 8 28 -7 45 -21 23 -44 26 -41
5z"/>
<path d="M3070 2454 c-8 -10 -10 -15 -3 -11 6 4 13 1 16 -5 2 -7 7 -11 9 -8 3
3 2 13 -1 23 -7 18 -8 18 -21 1z"/>
<path d="M3165 2441 c-81 -37 -163 -162 -186 -285 -63 -339 126 -660 334 -568
132 58 212 234 206 447 l-3 90 27 3 c15 2 27 7 27 12 0 5 -13 5 -30 0 -23 -7
-30 -5 -31 6 -1 8 -2 17 -4 22 -1 4 -5 21 -10 37 -15 57 -66 146 -105 185 -69
69 -147 87 -225 51z m121 -14 c4 -4 15 -7 24 -7 22 0 83 -60 114 -112 55 -94
71 -164 69 -308 -3 -314 -198 -502 -369 -356 -50 42 -96 129 -118 219 -20 80
-20 227 0 307 32 127 106 229 185 255 35 12 84 13 95 2z"/>
<path d="M3200 2399 c-19 -11 -48 -34 -63 -52 -16 -18 -40 -45 -55 -60 -17
-18 -26 -37 -24 -52 2 -13 -1 -26 -7 -29 -6 -4 -8 -13 -4 -21 3 -9 0 -22 -7
-30 -10 -12 -10 -18 1 -32 11 -12 14 -58 16 -182 1 -91 2 -175 2 -186 1 -19 8
-20 181 -20 l180 0 0 55 c1 30 1 116 1 190 0 104 3 138 15 151 13 14 13 18 0
28 -8 7 -12 19 -9 27 3 8 0 20 -6 28 -6 7 -9 21 -5 29 7 19 -80 115 -138 153
-21 13 -39 24 -40 23 -2 0 -19 -9 -38 -20z m97 -35 c12 -8 27 -22 32 -32 9
-16 2 -17 -90 -17 -54 0 -99 3 -99 6 0 11 45 48 70 58 28 11 53 6 87 -15z m35
-74 c21 -6 40 -14 42 -19 3 -4 -18 -2 -47 6 -65 18 -178 11 -214 -12 -19 -13
-24 -13 -21 -3 11 33 159 50 240 28z m37 -45 c7 -7 -13 -9 -57 -7 -74 4 -74 0
0 -42 47 -27 63 -24 52 11 -5 17 -5 17 10 -1 11 -14 13 -23 5 -32 -7 -9 -5
-15 8 -22 10 -6 16 -13 13 -15 -3 -3 -40 15 -83 40 l-78 46 -52 -28 c-29 -16
-65 -37 -80 -48 -16 -10 -31 -16 -35 -12 -4 4 -1 10 6 12 6 3 12 18 12 34 0
16 4 29 10 29 5 0 7 -6 4 -14 -11 -27 13 -24 72 10 l59 34 -68 -2 c-49 -2 -64
0 -53 7 18 14 242 13 255 0z m-265 -152 c-6 -21 -8 -193 -5 -290 1 -22 5 -23
81 -23 44 0 80 -3 80 -7 0 -5 -26 -7 -57 -6 -32 1 -73 2 -90 2 l-33 1 0 169
c0 162 2 173 28 180 1 1 -1 -11 -4 -26z m156 -15 c0 -11 4 -16 11 -12 6 3 9
14 6 23 -2 10 1 18 7 18 6 0 16 2 21 3 6 1 29 2 53 1 l42 -1 0 -170 c0 -129
-3 -170 -12 -171 -7 0 -23 -2 -35 -3 -13 -2 -23 1 -23 6 0 4 11 8 25 8 l25 0
0 161 c0 124 -3 160 -12 156 -7 -2 -13 -16 -12 -30 1 -15 -1 -27 -3 -27 -13 0
-33 32 -33 52 0 17 -3 20 -9 9 -5 -8 -7 -21 -3 -29 4 -11 1 -13 -8 -7 -8 5
-11 4 -7 -1 5 -8 -24 -11 -55 -5 -5 0 -8 15 -8 32 0 27 2 30 15 19 8 -7 15
-21 15 -32z m-90 17 c0 -8 -4 -15 -10 -15 -5 0 -10 7 -10 15 0 8 5 15 10 15 6
0 10 -7 10 -15z m47 -6 c1 -15 -3 -19 -13 -15 -8 3 -13 2 -10 -3 3 -5 -3 -11
-13 -14 -16 -4 -17 -1 -7 24 12 34 41 39 43 8z m-74 -11 c3 -12 3 -26 -1 -32
-3 -6 -6 -50 -7 -98 0 -82 1 -88 24 -98 26 -12 44 -4 22 9 -18 12 -3 18 38 17
37 -1 52 -19 26 -30 -9 -3 -14 -2 -11 3 3 5 -1 11 -9 15 -17 6 -18 4 -9 -18 7
-17 39 -22 48 -7 3 5 15 7 26 4 11 -3 17 -9 14 -14 -3 -5 -1 -9 4 -9 14 0 36
29 29 37 -4 3 -1 13 6 21 10 13 9 15 -3 10 -12 -4 -16 3 -17 33 -1 23 2 37 8
33 5 -3 7 -9 4 -14 -3 -5 0 -12 6 -16 8 -4 9 -3 5 4 -4 7 -3 12 3 12 9 0 11
-139 1 -141 -32 -9 -98 -4 -112 9 -10 8 -29 16 -43 18 -14 1 -32 8 -40 14 -11
9 -15 9 -15 1 0 -13 20 -23 53 -26 35 -4 37 -5 37 -14 0 -5 -25 -9 -55 -8
l-55 2 0 152 c0 140 9 188 23 131z m98 -46 c-6 -2 -11 -13 -11 -23 0 -11 -5
-17 -10 -14 -6 4 -10 3 -9 -2 3 -18 -2 -33 -11 -33 -5 0 -10 11 -10 25 0 14 5
25 10 25 6 0 10 5 10 10 0 15 -27 12 -33 -3 -3 -7 -3 -26 -2 -42 2 -16 0 -36
-5 -45 -6 -10 -5 -21 1 -27 6 -6 5 -14 -4 -21 -12 -10 -14 0 -16 65 -1 43 -5
80 -7 83 -12 11 81 27 95 16 9 -7 9 -12 2 -14z m116 -44 c0 -21 -3 -38 -8 -38
-5 0 -8 16 -7 35 1 19 -2 38 -6 43 -5 4 -7 -2 -6 -13 4 -33 1 -37 -16 -20 -11
10 -14 24 -10 41 6 24 7 24 29 7 17 -12 23 -28 24 -55z m-70 46 c-3 -3 -12 -4
-19 -1 -8 3 -5 6 6 6 11 1 17 -2 13 -5z m10 -66 c-3 -8 -6 -5 -6 6 -1 11 2 17
5 13 3 -3 4 -12 1 -19z m-27 -30 c0 -4 8 -8 17 -8 9 0 14 -3 10 -6 -3 -3 -2
-17 3 -30 7 -18 6 -22 -5 -18 -8 3 -11 12 -8 22 5 11 2 14 -10 9 -12 -4 -17
-1 -17 11 0 15 -2 15 -10 2 -8 -11 -9 -8 -4 13 4 17 2 27 -6 27 -6 0 -8 5 -4
12 5 7 11 5 21 -7 7 -11 13 -22 13 -27z m50 -165 c0 -5 -11 -8 -25 -8 -14 0
-25 3 -25 8 0 4 11 7 25 7 14 0 25 -3 25 -7z"/>
<path d="M3255 1820 c-3 -5 1 -10 9 -10 8 0 18 5 21 10 3 6 -1 10 -9 10 -8 0
-18 -4 -21 -10z"/>
<path d="M3116 1712 c-2 -4 -1 -14 5 -22 7 -12 9 -10 9 8 0 23 -5 28 -14 14z"/>
<path d="M3154 1709 c-3 -6 -2 -15 3 -20 5 -5 9 -1 9 11 0 23 -2 24 -12 9z"/>
<path d="M3190 1710 c-9 -6 -10 -10 -3 -10 6 0 15 5 18 10 8 12 4 12 -15 0z"/>
<path d="M3220 1706 c0 -2 7 -6 15 -10 8 -3 15 -1 15 4 0 6 -7 10 -15 10 -8 0
-15 -2 -15 -4z"/>
<path d="M3297 1690 c3 -11 9 -17 14 -15 10 7 1 35 -11 35 -5 0 -6 -9 -3 -20z"/>
<path d="M3330 1688 c0 -12 3 -18 7 -14 11 10 12 36 2 36 -5 0 -9 -10 -9 -22z"/>
<path d="M3185 1680 c3 -5 8 -10 11 -10 2 0 4 5 4 10 0 6 -5 10 -11 10 -5 0
-7 -4 -4 -10z"/>
<path d="M3210 1686 c0 -2 7 -7 16 -10 8 -3 12 -2 9 4 -6 10 -25 14 -25 6z"/>
<path d="M608 2444 c-2 -1 -16 -5 -31 -8 -156 -28 -266 -106 -336 -236 -26
-49 -48 -123 -43 -142 1 -5 -2 -8 -7 -8 -4 0 -7 -24 -6 -52 1 -29 3 -53 5 -53
1 0 4 -12 6 -27 20 -123 117 -254 231 -311 208 -106 440 -44 572 153 34 49 64
129 64 166 0 8 3 14 7 14 19 0 -1 143 -32 225 -13 34 -63 112 -88 136 -68 67
-180 126 -250 131 -16 1 -30 5 -30 8 0 6 -57 10 -62 4z"/>
<path d="M1673 2433 c-26 -26 -30 -65 -9 -82 11 -10 24 -9 55 0 23 7 39 14 37
16 -10 10 -51 11 -68 2 -19 -10 -19 -9 -3 15 9 14 15 35 13 48 l-3 23 -22 -22z"/>
<path d="M2199 2442 c-1 -7 -2 -18 -3 -24 -1 -7 5 -23 12 -36 15 -22 14 -23
-11 -11 -29 13 -73 4 -47 -10 38 -21 59 -22 79 -2 12 12 17 27 14 40 -6 24
-42 59 -44 43z"/>
<path d="M3405 2440 c-4 -6 -11 -7 -17 -4 -7 4 -8 2 -4 -4 10 -16 23 -15 30 3
6 17 0 20 -9 5z"/>
<path d="M3430 2415 c0 -10 -5 -13 -12 -9 -7 4 -8 3 -4 -5 4 -6 12 -9 17 -6 5
4 9 -2 9 -12 0 -15 2 -16 10 -3 6 10 6 16 0 18 -6 2 -8 8 -5 12 3 5 1 11 -5
15 -5 3 -10 -1 -10 -10z"/>
<path d="M1880 2403 c0 -5 28 -7 62 -5 53 2 72 -2 117 -25 56 -29 67 -48 29
-47 -13 0 -22 5 -21 12 2 6 -8 9 -24 6 -21 -4 -24 -2 -15 9 9 11 8 14 -3 14
-8 0 -12 -4 -9 -9 7 -11 -3 -10 -49 3 -23 6 -35 14 -31 21 4 7 2 8 -5 4 -6 -4
-9 -12 -6 -17 4 -5 -1 -9 -10 -9 -11 0 -15 5 -11 16 3 9 2 12 -5 9 -6 -4 -8
-13 -5 -21 3 -8 -1 -14 -10 -14 -8 0 -12 5 -9 10 3 6 1 10 -5 10 -7 0 -10 -7
-6 -15 6 -17 -5 -20 -21 -4 -8 8 -13 8 -17 0 -4 -6 0 -11 11 -11 17 -1 16 -1
-1 -12 -15 -8 -21 -8 -24 0 -2 7 -8 12 -14 12 -6 0 -5 -6 2 -15 11 -13 10 -18
-6 -29 -20 -15 -38 -11 -28 6 5 7 2 8 -5 3 -9 -5 -10 -10 -2 -18 16 -16 13
-25 -6 -22 -10 1 -13 0 -6 -2 7 -2 9 -11 6 -19 -4 -12 -8 -13 -13 -4 -4 7 -13
9 -19 6 -6 -4 -9 -12 -5 -17 3 -5 10 -7 15 -4 11 8 11 8 -1 -34 -7 -24 -6 -31
1 -24 6 6 11 17 13 26 4 28 38 82 68 106 60 49 138 63 202 36 20 -8 36 -13 36
-10 0 3 16 -11 35 -31 41 -42 78 -108 67 -119 -4 -5 -2 -5 4 -2 6 4 11 19 11
34 0 16 -2 22 -5 15 -2 -9 -9 -3 -18 14 -12 22 -12 29 -2 35 7 4 9 12 4 16 -5
4 -11 2 -13 -5 -3 -6 -9 -9 -14 -6 -6 3 -5 12 3 22 11 15 11 15 -3 4 -13 -10
-19 -9 -30 5 -12 15 -12 16 3 10 10 -3 20 -2 24 4 9 15 37 -14 63 -67 45 -89
35 -192 -25 -271 -20 -27 -29 -32 -39 -23 -11 10 -13 8 -10 -9 6 -30 -68 -69
-93 -49 -16 12 -16 11 -2 -6 15 -19 13 -19 -71 -14 -69 5 -93 11 -126 31 -32
20 -40 31 -36 46 3 13 0 23 -11 27 -9 3 -13 10 -10 16 9 15 43 -22 37 -40 -4
-15 -3 -15 6 -2 10 14 12 13 15 -20 0 -8 7 -14 14 -12 6 1 12 -2 12 -8 0 -5 5
-10 11 -10 8 0 7 6 -2 17 -12 15 -12 16 4 10 10 -4 23 -7 29 -7 6 0 6 -6 -2
-15 -9 -10 -9 -15 -1 -15 6 0 11 5 11 10 0 6 12 10 28 11 20 0 13 4 -23 14
-27 7 -53 11 -57 8 -5 -2 -8 1 -8 7 0 7 -11 21 -24 31 -14 11 -36 43 -51 72
-15 30 -24 41 -21 25 3 -14 3 -28 -2 -31 -4 -2 -1 -2 6 -1 16 4 15 -6 -3 -30
-14 -18 -15 -18 -29 15 -7 19 -17 59 -21 89 -7 52 -7 54 11 40 17 -14 18 -14
6 2 -17 22 -8 69 23 118 28 44 49 62 103 90 52 27 49 39 -4 14 -84 -40 -154
-151 -154 -243 0 -102 70 -210 164 -252 180 -79 390 58 388 254 -2 111 -89
227 -193 257 -40 12 -149 13 -149 3z m-130 -398 c-10 -12 -9 -16 4 -21 9 -3
16 -13 16 -22 0 -14 -4 -13 -21 4 -18 19 -19 24 -8 42 7 12 15 19 18 17 2 -3
-2 -11 -9 -20z"/>
<path d="M1980 2380 c0 -5 5 -10 11 -10 5 0 7 5 4 10 -3 6 -8 10 -11 10 -2 0
-4 -4 -4 -10z"/>
<path d="M1601 2361 c-23 -41 -5 -93 29 -84 33 9 60 27 60 39 0 11 -6 11 -27
3 -15 -6 -31 -16 -35 -22 -5 -7 -5 7 -2 29 7 46 -8 67 -25 35z"/>
<path d="M2265 2361 c-3 -12 -4 -30 0 -41 6 -19 5 -19 -29 -5 -38 16 -47 8
-18 -17 43 -37 82 -22 82 31 0 38 -26 61 -35 32z"/>
<path d="M2975 2341 c-9 -16 35 -35 49 -21 8 8 7 10 -7 4 -13 -5 -16 -2 -11
10 7 17 -20 23 -31 7z"/>
<path d="M3474 2335 c-12 -9 -14 -14 -5 -15 8 0 11 -6 6 -17 -5 -14 -4 -15 6
-6 7 7 18 9 24 5 6 -4 3 0 -7 10 -13 12 -15 18 -6 21 7 2 10 7 7 11 -3 3 -14
-1 -25 -9z"/>
<path d="M2036 2285 c47 -31 70 -65 83 -121 8 -36 9 -37 10 -9 2 52 -59 135
-110 150 -16 4 -10 -2 17 -20z"/>
<path d="M1974 2287 c-4 -6 -4 -9 1 -5 12 11 59 -17 89 -52 14 -18 26 -27 26
-22 0 14 -50 62 -82 78 -21 11 -28 11 -34 1z"/>
<path d="M2975 2280 c20 -23 34 -28 16 -6 -10 11 -8 15 6 19 11 3 7 5 -11 6
-28 1 -29 1 -11 -19z"/>
<path d="M1546 2266 c-7 -29 7 -72 26 -79 23 -8 88 39 88 65 0 12 -9 10 -39
-11 l-27 -20 -13 35 c-14 40 -26 43 -35 10z"/>
<path d="M1816 2275 c-9 -26 -7 -32 5 -12 6 10 9 21 6 23 -2 3 -7 -2 -11 -11z"/>
<path d="M1898 2283 c6 -2 18 -2 25 0 6 3 1 5 -13 5 -14 0 -19 -2 -12 -5z"/>
<path d="M2311 2264 c-6 -14 -9 -30 -6 -35 10 -15 -5 -10 -37 12 -44 32 -48
12 -5 -27 31 -29 41 -33 57 -24 23 12 35 49 25 79 -9 28 -19 26 -34 -5z"/>
<path d="M1850 2266 c0 -8 8 -20 18 -25 9 -6 12 -11 5 -11 -6 0 -18 7 -27 15
-13 14 -15 13 -13 -4 0 -11 5 -17 9 -15 5 3 13 -8 19 -25 6 -17 15 -28 20 -25
5 3 9 -2 9 -10 0 -10 -6 -13 -15 -10 -26 10 -17 -35 12 -64 25 -24 27 -33 24
-84 -2 -42 1 -59 11 -62 29 -9 107 -13 102 -5 -3 5 3 6 13 2 10 -3 15 -3 11 2
-4 4 -3 14 2 20 6 7 12 27 14 45 2 18 10 36 17 41 11 6 10 9 -5 15 -10 4 -27
7 -39 8 -19 1 -21 6 -19 42 3 42 -2 49 -84 114 -7 5 -18 2 -30 -8 -17 -16 -17
-16 -4 1 15 20 13 21 -32 48 -14 7 -18 6 -18 -5z"/>
<path d="M2956 2255 c10 -8 24 -14 29 -14 6 0 1 6 -9 14 -11 8 -24 15 -30 15
-5 0 -1 -7 10 -15z"/>
<path d="M3503 2245 c13 -10 15 -14 5 -18 -7 -2 -10 -7 -7 -11 3 -3 13 2 23
13 16 18 16 19 -11 24 -25 5 -26 4 -10 -8z"/>
<path d="M3515 2200 c-3 -5 1 -10 9 -10 8 0 18 5 21 10 3 6 -1 10 -9 10 -8 0
-18 -4 -21 -10z"/>
<path d="M1525 2178 c-16 -42 41 -102 72 -76 15 12 43 68 43 84 0 13 -42 -30
-50 -51 -8 -19 -8 -19 -18 5 -5 14 -17 32 -26 39 -13 11 -17 11 -21 -1z"/>
<path d="M1762 2170 c0 -14 2 -19 5 -12 2 6 2 18 0 25 -3 6 -5 1 -5 -13z"/>
<path d="M1794 2176 c-3 -8 -4 -27 -2 -43 3 -23 5 -20 9 15 5 43 2 53 -7 28z"/>
<path d="M2168 2168 c-10 -10 -14 -18 -9 -18 10 0 36 29 30 34 -2 1 -12 -6
-21 -16z"/>
<path d="M2255 2168 c10 -34 39 -71 58 -74 22 -3 57 42 57 72 0 13 -4 24 -8
24 -17 0 -42 -37 -42 -60 0 -21 -4 -18 -27 18 -30 46 -48 55 -38 20z"/>
<path d="M1720 2145 c0 -5 5 -17 10 -25 5 -8 10 -10 10 -5 0 6 -5 17 -10 25
-5 8 -10 11 -10 5z"/>
<path d="M2933 2143 c-13 -2 -23 -7 -23 -11 0 -4 10 -13 23 -21 20 -13 21 -13
8 2 -12 15 -11 17 3 17 9 0 16 5 16 10 0 6 -1 9 -2 9 -2 -1 -13 -4 -25 -6z"/>
<path d="M3590 2140 c0 -5 5 -10 11 -10 5 0 7 5 4 10 -3 6 -8 10 -11 10 -2 0
-4 -4 -4 -10z"/>
<path d="M1695 2131 c-3 -5 -1 -12 5 -16 5 -3 10 1 10 9 0 18 -6 21 -15 7z"/>
<path d="M2160 2135 c0 -10 29 -24 34 -17 3 6 -3 12 -14 15 -11 3 -20 4 -20 2z"/>
<path d="M2116 2105 c-3 -8 -1 -15 4 -15 6 0 10 7 10 15 0 8 -2 15 -4 15 -2 0
-6 -7 -10 -15z"/>
<path d="M3545 2094 c-24 -37 -13 -40 14 -4 12 17 17 30 12 30 -5 0 -16 -12
-26 -26z"/>
<path d="M3590 2110 c0 -5 5 -10 10 -10 6 0 10 5 10 10 0 6 -4 10 -10 10 -5 0
-10 -4 -10 -10z"/>
<path d="M1612 2085 c-7 -14 -12 -36 -13 -48 0 -15 -2 -17 -6 -7 -8 21 -43 50
-60 50 -16 0 -16 -2 -2 -34 7 -14 26 -30 42 -36 36 -12 48 1 58 63 6 43 -3 48
-19 12z"/>
<path d="M1766 2090 c11 -39 49 -90 84 -112 18 -10 34 -17 37 -14 3 2 -8 11
-24 19 -36 19 -58 43 -83 93 -12 22 -18 28 -14 14z"/>
<path d="M2150 2083 c-19 -51 -34 -74 -67 -104 -19 -16 -30 -29 -25 -29 13 0
68 53 82 79 15 28 30 81 24 81 -2 0 -9 -12 -14 -27z"/>
<path d="M2260 2085 c0 -65 18 -87 63 -77 15 3 47 49 47 67 0 14 -32 2 -52
-20 -22 -24 -24 -24 -25 -5 -1 11 -9 30 -17 42 l-16 22 0 -29z"/>
<path d="M2176 2075 c-9 -26 -7 -32 5 -12 6 10 9 21 6 23 -2 3 -7 -2 -11 -11z"/>
<path d="M2905 2079 c6 -9 45 -8 45 2 0 4 -11 7 -25 7 -13 0 -22 -4 -20 -9z"/>
<path d="M1816 2052 c10 -19 28 -38 39 -44 19 -10 12 0 -49 67 -5 6 0 -5 10
-23z"/>
<path d="M3570 2070 c0 -7 -10 -21 -22 -31 -15 -14 -17 -19 -6 -19 16 0 45 46
35 57 -4 3 -7 0 -7 -7z"/>
<path d="M2920 2048 c-19 -7 -21 -11 -11 -18 9 -5 20 -3 29 6 19 20 13 24 -18
12z"/>
<path d="M1635 2017 c-4 -15 -5 -38 -3 -52 l5 -24 -29 24 c-16 13 -35 22 -43
19 -21 -8 -19 -17 8 -42 26 -24 57 -28 75 -10 13 13 15 63 2 93 -7 18 -8 18
-15 -8z"/>
<path d="M2155 2030 c-3 -5 -1 -10 4 -10 6 0 11 5 11 10 0 6 -2 10 -4 10 -3 0
-8 -4 -11 -10z"/>
<path d="M2236 2008 c-13 -49 5 -88 39 -88 23 0 78 52 64 61 -15 9 -37 2 -63
-20 -17 -15 -18 -15 -16 4 4 36 0 65 -9 65 -5 0 -11 -10 -15 -22z"/>
<path d="M2913 1985 c21 -15 22 -25 2 -25 -8 0 -15 -4 -15 -9 0 -5 7 -8 16 -7
23 2 28 -19 9 -38 -15 -15 -15 -16 4 -16 11 0 23 5 27 12 4 7 3 8 -5 4 -8 -6
-10 0 -5 18 4 17 2 26 -6 26 -10 0 -10 3 0 15 10 12 10 15 -1 15 -12 0 -12 2
0 9 9 6 5 9 -15 9 -24 0 -26 -2 -11 -13z"/>
<path d="M3540 1990 c8 -5 22 -10 30 -10 13 0 13 1 0 10 -8 5 -22 10 -30 10
-13 0 -13 -1 0 -10z"/>
<path d="M1670 1950 c0 -17 5 -40 10 -50 10 -18 9 -19 -18 -3 -27 16 -62 13
-62 -5 0 -14 54 -38 77 -34 29 4 35 26 23 73 -13 49 -30 60 -30 19z"/>
<path d="M2201 1958 c-7 -14 -14 -40 -16 -56 -2 -26 2 -33 25 -40 21 -8 34 -6
58 10 18 11 29 24 26 29 -8 14 -42 10 -71 -8 -26 -17 -26 -17 -14 5 7 13 11
37 9 54 l-3 32 -14 -26z"/>
<path d="M3601 1954 c0 -11 3 -14 6 -6 3 7 2 16 -1 19 -3 4 -6 -2 -5 -13z"/>
<path d="M3530 1952 c0 -4 12 -8 28 -9 23 -1 24 -1 7 7 -26 11 -35 12 -35 2z"/>
<path d="M2050 1929 c-19 -10 -30 -19 -24 -19 16 0 64 24 64 33 0 9 1 9 -40
-14z"/>
<path d="M2881 1934 c0 -11 3 -14 6 -6 3 7 2 16 -1 19 -3 4 -6 -2 -5 -13z"/>
<path d="M1727 1900 c3 -19 10 -44 16 -55 8 -16 7 -18 -4 -7 -16 14 -75 16
-84 2 -3 -5 11 -18 32 -27 21 -10 44 -24 51 -30 7 -7 16 -13 20 -14 4 0 16 -2
27 -4 11 -2 31 4 44 14 23 17 23 19 7 52 -9 19 -25 40 -37 47 -19 12 -20 12
-14 -10 4 -13 13 -32 20 -44 12 -19 11 -20 -20 -20 -22 1 -30 5 -24 11 17 17
9 59 -16 90 l-25 30 7 -35z"/>
<path d="M1943 1914 c-15 -16 -16 -24 -4 -24 8 0 24 30 19 35 -2 2 -9 -3 -15
-11z"/>
<path d="M1977 1914 c3 -9 9 -12 12 -7 3 4 10 11 15 16 5 4 0 7 -12 7 -15 0
-20 -4 -15 -16z"/>
<path d="M2140 1898 c-10 -18 -18 -44 -16 -59 3 -23 -1 -28 -24 -31 l-27 -4
18 30 c11 17 19 37 19 45 0 22 -47 -26 -58 -59 -9 -24 -7 -29 17 -43 22 -13
35 -14 65 -6 21 6 35 13 32 16 -3 4 12 14 35 24 22 10 38 23 34 29 -8 13 -62
13 -70 0 -3 -5 -11 -10 -17 -10 -7 0 -7 4 0 13 11 13 25 87 16 87 -2 0 -13
-14 -24 -32z"/>
<path d="M2905 1920 c-3 -5 -1 -10 4 -10 6 0 11 5 11 10 0 6 -2 10 -4 10 -3 0
-8 -4 -11 -10z"/>
<path d="M3593 1910 c-1 -11 2 -20 5 -20 4 0 8 9 9 20 1 11 -2 20 -5 20 -4 0
-8 -9 -9 -20z"/>
<path d="M3530 1909 c0 -5 11 -9 25 -9 14 0 25 2 25 4 0 2 -11 6 -25 8 -14 3
-25 1 -25 -3z"/>
<path d="M2883 1890 c3 -14 9 -42 12 -62 4 -21 11 -38 15 -38 8 0 -17 111 -27
120 -3 3 -3 -6 0 -20z"/>
<path d="M3520 1866 c0 -9 40 -13 46 -5 3 5 -6 9 -20 9 -14 0 -26 -2 -26 -4z"/>
<path d="M1857 1833 c9 -16 25 -35 35 -43 18 -15 17 -16 -18 -17 -35 -1 -74
-26 -61 -39 11 -12 85 -8 101 5 8 7 13 18 10 26 -3 7 -1 16 5 19 11 7 -8 30
-49 59 -35 25 -43 21 -23 -10z"/>
<path d="M1990 1825 c-23 -19 -36 -35 -30 -35 7 0 10 -8 7 -19 -6 -24 38 -50
78 -44 39 6 42 10 23 29 -9 9 -32 16 -52 16 -34 0 -35 1 -17 17 26 22 55 71
43 71 -6 0 -29 -16 -52 -35z"/>
<path d="M2925 1850 c-7 -12 2 -12 30 0 19 8 19 9 -2 9 -12 1 -25 -3 -28 -9z"/>
<path d="M3575 1813 c-11 -59 -61 -160 -105 -213 -45 -54 -120 -106 -164 -114
-16 -3 -31 -8 -34 -11 -4 -3 9 -3 28 0 113 20 233 158 284 328 8 26 10 47 6
47 -4 0 -11 -17 -15 -37z"/>
<path d="M2950 1815 c-15 -8 -19 -14 -10 -14 18 -1 46 16 40 23 -3 2 -16 -2
-30 -9z"/>
<path d="M3544 1801 c6 -8 0 -10 -21 -6 -27 5 -27 5 -4 -5 26 -11 52 2 30 15
-8 5 -10 4 -5 -4z"/>
<path d="M2963 1784 c4 -4 2 -13 -5 -21 -17 -21 -3 -25 16 -4 16 17 16 19 -1
25 -9 4 -14 4 -10 0z"/>
<path d="M2910 1776 c0 -28 77 -161 117 -204 48 -50 138 -102 178 -102 11 1
-3 9 -32 18 -28 10 -72 34 -96 53 -48 36 -116 130 -137 189 -13 35 -30 61 -30
46z"/>
<path d="M3504 1745 c11 -8 22 -12 25 -9 6 6 -19 24 -34 24 -5 -1 -1 -7 9 -15z"/>
<path d="M2506 1675 c3 -7 12 -11 20 -8 8 3 14 -1 14 -9 0 -8 10 -14 25 -14
18 0 25 5 25 19 0 16 -3 17 -15 7 -12 -10 -15 -10 -15 0 0 8 -3 11 -6 7 -3 -3
-17 -2 -30 3 -18 7 -22 6 -18 -5z"/>
<path d="M1421 1647 c-13 -13 -15 -64 -2 -72 17 -10 69 -12 83 -4 10 7 10 9 1
10 -7 1 -22 3 -33 4 -11 1 -25 3 -31 4 -6 0 -9 11 -7 24 2 18 10 23 41 25 20
2 37 7 37 11 0 12 -77 10 -89 -2z"/>
<path d="M1632 1618 c3 -43 3 -43 44 -46 31 -2 43 1 48 13 10 28 -12 55 -44
55 -17 0 -30 5 -30 10 0 6 -5 10 -11 10 -6 0 -9 -17 -7 -42z m66 -15 c-2 -10
-12 -18 -23 -18 -11 0 -21 8 -23 18 -3 13 3 17 23 17 20 0 26 -4 23 -17z"/>
<path d="M1964 1652 c-16 -10 -14 -82 3 -82 7 0 13 5 13 10 0 6 11 10 24 10
40 0 56 11 56 36 0 13 -1 24 -2 25 -26 6 -86 7 -94 1z m76 -27 c0 -10 -11 -15
-35 -15 -26 0 -33 3 -29 15 4 9 19 15 35 15 19 0 29 -5 29 -15z"/>
<path d="M3445 1650 c4 -7 2 -16 -6 -21 -11 -7 -10 -9 4 -9 19 0 23 25 5 36
-7 5 -8 3 -3 -6z"/>
<path d="M3027 1644 c-9 -9 4 -35 14 -28 5 3 9 12 9 20 0 14 -12 19 -23 8z"/>
<path d="M1520 1610 c0 -23 5 -31 23 -34 12 -3 31 -7 42 -9 18 -4 18 -5 -2 -6
-13 0 -23 -5 -23 -9 0 -10 30 -9 47 1 14 9 13 89 -1 84 -6 -2 -11 -12 -11 -23
0 -13 -8 -20 -27 -22 -24 -3 -28 0 -28 22 0 14 -4 26 -10 26 -5 0 -10 -13 -10
-30z"/>
<path d="M1740 1605 c0 -32 2 -35 28 -34 17 1 20 3 9 6 -28 7 -10 21 23 17 26
-3 30 0 30 19 0 20 -5 24 -45 26 l-45 2 0 -36z m63 8 c-7 -2 -21 -2 -30 0 -10
3 -4 5 12 5 17 0 24 -2 18 -5z"/>
<path d="M1850 1625 c-14 -17 -10 -47 7 -52 8 -3 11 3 8 17 -2 12 2 23 10 27
8 3 15 9 15 14 0 14 -26 10 -40 -6z"/>
<path d="M2080 1625 c-20 -24 -8 -50 25 -52 28 -2 28 -1 5 5 -28 9 -17 19 20
17 30 -1 43 14 28 32 -14 17 -63 16 -78 -2z m53 -12 c-7 -2 -21 -2 -30 0 -10
3 -4 5 12 5 17 0 24 -2 18 -5z"/>
<path d="M2234 1625 c19 -14 18 -15 -16 -15 -39 0 -51 -9 -40 -27 8 -12 24
-16 65 -14 24 1 27 5 27 36 0 32 -3 35 -27 35 -27 -1 -27 -1 -9 -15z m16 -35
c0 -5 -11 -10 -25 -10 -14 0 -25 5 -25 10 0 6 11 10 25 10 14 0 25 -4 25 -10z"/>
<path d="M2297 1633 c-12 -11 -8 -61 6 -66 18 -7 78 4 72 13 -3 5 -19 6 -35 4
-25 -4 -30 -2 -30 15 0 17 6 21 36 21 21 0 33 4 29 10 -7 11 -68 14 -78 3z"/>
<path d="M2397 1633 c-4 -3 -7 -19 -7 -34 0 -29 19 -42 41 -28 12 7 12 9 -1 9
-9 0 -16 9 -17 20 -1 16 4 20 25 19 l27 -1 -25 -8 c-21 -6 -22 -8 -8 -14 9 -4
26 -2 38 4 17 9 19 14 9 26 -12 14 -70 20 -82 7z"/>
<path d="M3050 1605 c-8 -9 -8 -15 -2 -15 12 0 26 19 19 26 -2 2 -10 -2 -17
-11z"/>
<path d="M3422 1596 c7 -8 15 -12 17 -11 5 6 -10 25 -20 25 -5 0 -4 -6 3 -14z"/>
<path d="M3070 1585 c-8 -9 -8 -15 -2 -15 12 0 26 19 19 26 -2 2 -10 -2 -17
-11z"/>
<path d="M3381 1577 c-6 -8 -7 -17 -3 -22 4 -4 -5 -6 -20 -3 -23 4 -25 3 -15
-13 8 -13 13 -15 19 -6 4 7 8 8 8 3 0 -6 7 -1 15 10 8 10 15 15 15 9 0 -5 4
-3 9 5 18 26 -7 41 -28 17z m29 -1 c0 -2 -7 -7 -16 -10 -8 -3 -12 -2 -9 4 6
10 25 14 25 6z"/>
<path d="M3099 1563 c-13 -17 -13 -17 5 -3 18 13 19 13 14 -1 -4 -9 2 -23 13
-32 17 -15 19 -15 30 6 11 20 11 21 -4 8 -10 -7 -17 -9 -17 -4 0 5 -6 17 -13
27 -12 17 -14 17 -28 -1z"/>
<path d="M3177 1533 c-4 -3 -7 -11 -7 -17 0 -6 5 -4 10 4 8 13 10 12 10 -2 0
-10 7 -18 15 -18 12 0 12 3 -2 20 -20 23 -18 22 -26 13z"/>
<path d="M3300 1524 c0 -8 5 -14 10 -14 6 0 10 5 10 11 0 5 6 7 13 3 6 -4 8
-3 4 1 -13 15 -37 14 -37 -1z"/>
<path d="M2220 1521 c0 -6 -9 -11 -20 -11 -11 0 -20 -5 -20 -12 0 -9 -3 -9
-12 0 -16 16 -48 15 -48 0 0 -9 -4 -8 -10 2 -9 13 -14 7 -11 -12 0 -5 -6 -8
-14 -8 -8 0 -15 7 -15 15 0 12 -11 14 -61 10 -44 -4 -59 -2 -53 6 4 7 1 10 -7
7 -8 -3 -16 -15 -17 -28 -3 -19 -1 -22 10 -14 15 12 35 12 62 -1 11 -5 26 -4
37 4 12 7 19 7 19 1 0 -5 16 -9 35 -7 20 1 35 7 35 15 0 6 7 12 15 12 8 0 15
-6 15 -13 0 -8 14 -14 34 -15 29 -2 34 1 38 23 3 14 1 28 -3 31 -5 3 -9 0 -9
-5z m-190 -31 c0 -5 -7 -10 -16 -10 -8 0 -12 5 -9 10 3 6 10 10 16 10 5 0 9
-4 9 -10z m190 0 c0 -5 -7 -10 -15 -10 -8 0 -15 5 -15 10 0 6 7 10 15 10 8 0
15 -4 15 -10z"/>
<path d="M2309 1530 c-6 -19 -3 -60 3 -60 4 0 8 7 8 15 0 8 5 15 10 15 6 0 10
-8 10 -17 0 -15 2 -16 10 -3 6 10 10 11 10 3 0 -7 11 -13 25 -13 19 0 25 5 25
21 0 19 -4 21 -35 16 -24 -4 -33 -2 -29 5 5 7 2 8 -6 3 -7 -4 -16 -2 -21 6 -5
8 -9 12 -10 9z m91 -40 c0 -5 -7 -10 -15 -10 -8 0 -15 5 -15 10 0 6 7 10 15
10 8 0 15 -4 15 -10z"/>
<path d="M3226 1515 c4 -8 10 -15 15 -15 4 0 6 7 3 15 -4 8 -10 15 -15 15 -4
0 -6 -7 -3 -15z"/>
<path d="M3261 1514 c0 -11 3 -14 6 -6 3 7 2 16 -1 19 -3 4 -6 -2 -5 -13z"/>
<path d="M2263 1497 c-26 -12 -30 -27 -7 -27 8 0 12 5 9 10 -3 6 -1 10 4 10 6
0 11 -5 11 -12 0 -9 3 -9 12 0 18 18 -3 32 -29 19z"/>
<path d="M2421 1488 c1 -17 2 -19 6 -5 6 21 33 23 33 1 0 -8 4 -13 10 -9 17
10 -1 35 -26 35 -19 0 -24 -5 -23 -22z"/>
<path d="M3238 1473 c7 -3 16 -2 19 1 4 3 -2 6 -13 5 -11 0 -14 -3 -6 -6z"/>
</g>
</svg>
